<svg width="167" height="60" viewBox="0 0 167 60" fill="none" xmlns="http://www.w3.org/2000/svg">
<ellipse cx="37.5" cy="30" rx="37.5" ry="30" fill="#FDFBEE"/>
<ellipse cx="37.5" cy="30.3" rx="28.5" ry="22.5" fill="#0D0D0D"/>
<g filter="url(#filter0_d_195_62)">
<mask id="path-3-outside-1_195_62" maskUnits="userSpaceOnUse" x="26" y="15" width="25" height="29" fill="black">
<rect fill="white" x="26" y="15" width="25" height="29"/>
<path d="M49.496 16.324L48.584 21.454H37.716L36.728 27.192H44.86L43.948 32.132H35.816L33.916 43H27.418L32.13 16.324H49.496Z"/>
</mask>
<path d="M49.496 16.324L48.584 21.454H37.716L36.728 27.192H44.86L43.948 32.132H35.816L33.916 43H27.418L32.13 16.324H49.496Z" fill="#FDFBEE"/>
<path d="M49.496 16.324L50.4806 16.499L50.6895 15.324H49.496V16.324ZM48.584 21.454V22.454H49.4219L49.5686 21.629L48.584 21.454ZM37.716 21.454V20.454H36.8735L36.7305 21.2843L37.716 21.454ZM36.728 27.192L35.7425 27.0223L35.5411 28.192H36.728V27.192ZM44.86 27.192L45.8434 27.3735L46.0615 26.192H44.86V27.192ZM43.948 32.132V33.132H44.7803L44.9314 32.3135L43.948 32.132ZM35.816 32.132V31.132H34.9757L34.8309 31.9598L35.816 32.132ZM33.916 43V44H34.7563L34.9011 43.1722L33.916 43ZM27.418 43L26.4332 42.8261L26.2259 44H27.418V43ZM32.13 16.324V15.324H31.2912L31.1452 16.1501L32.13 16.324ZM48.5114 16.149L47.5994 21.279L49.5686 21.629L50.4806 16.499L48.5114 16.149ZM48.584 20.454H37.716V22.454H48.584V20.454ZM36.7305 21.2843L35.7425 27.0223L37.7135 27.3617L38.7015 21.6237L36.7305 21.2843ZM36.728 28.192H44.86V26.192H36.728V28.192ZM43.8766 27.0105L42.9646 31.9505L44.9314 32.3135L45.8434 27.3735L43.8766 27.0105ZM43.948 31.132H35.816V33.132H43.948V31.132ZM34.8309 31.9598L32.9309 42.8278L34.9011 43.1722L36.8011 32.3042L34.8309 31.9598ZM33.916 42H27.418V44H33.916V42ZM28.4028 43.1739L33.1148 16.4979L31.1452 16.1501L26.4332 42.8261L28.4028 43.1739ZM32.13 17.324H49.496V15.324H32.13V17.324Z" fill="#0D0D0D" mask="url(#path-3-outside-1_195_62)"/>
</g>
<path d="M80.896 32.04C80.896 30.2053 81.2373 28.5947 81.92 27.208C82.624 25.8213 83.5733 24.7547 84.768 24.008C85.9627 23.2613 87.296 22.888 88.768 22.888C90.0267 22.888 91.1253 23.144 92.064 23.656C93.024 24.168 93.76 24.84 94.272 25.672V23.144H99.744V41H94.272V38.472C93.7387 39.304 92.992 39.976 92.032 40.488C91.0933 41 89.9947 41.256 88.736 41.256C87.2853 41.256 85.9627 40.8827 84.768 40.136C83.5733 39.368 82.624 38.2907 81.92 36.904C81.2373 35.496 80.896 33.8747 80.896 32.04ZM94.272 32.072C94.272 30.7067 93.888 29.6293 93.12 28.84C92.3733 28.0507 91.456 27.656 90.368 27.656C89.28 27.656 88.352 28.0507 87.584 28.84C86.8373 29.608 86.464 30.6747 86.464 32.04C86.464 33.4053 86.8373 34.4933 87.584 35.304C88.352 36.0933 89.28 36.488 90.368 36.488C91.456 36.488 92.3733 36.0933 93.12 35.304C93.888 34.5147 94.272 33.4373 94.272 32.072ZM114.679 22.952C116.727 22.952 118.369 23.6347 119.607 25C120.844 26.344 121.463 28.2 121.463 30.568V41H116.023V31.304C116.023 30.1093 115.713 29.1813 115.095 28.52C114.476 27.8587 113.644 27.528 112.599 27.528C111.553 27.528 110.721 27.8587 110.103 28.52C109.484 29.1813 109.175 30.1093 109.175 31.304V41H103.703V17.32H109.175V25.544C109.729 24.7547 110.487 24.1253 111.447 23.656C112.407 23.1867 113.484 22.952 114.679 22.952ZM148.049 22.952C150.268 22.952 152.028 23.624 153.329 24.968C154.652 26.312 155.313 28.1787 155.313 30.568V41H149.873V31.304C149.873 30.152 149.564 29.2667 148.945 28.648C148.348 28.008 147.516 27.688 146.449 27.688C145.383 27.688 144.54 28.008 143.921 28.648C143.324 29.2667 143.025 30.152 143.025 31.304V41H137.585V31.304C137.585 30.152 137.276 29.2667 136.657 28.648C136.06 28.008 135.228 27.688 134.161 27.688C133.095 27.688 132.252 28.008 131.633 28.648C131.036 29.2667 130.737 30.152 130.737 31.304V41H125.265V23.144H130.737V25.384C131.292 24.6373 132.017 24.0507 132.913 23.624C133.809 23.176 134.823 22.952 135.953 22.952C137.297 22.952 138.492 23.24 139.537 23.816C140.604 24.392 141.436 25.2133 142.033 26.28C142.652 25.2987 143.495 24.4987 144.561 23.88C145.628 23.2613 146.791 22.952 148.049 22.952ZM161.892 21.288C160.932 21.288 160.143 21.0107 159.524 20.456C158.927 19.88 158.628 19.176 158.628 18.344C158.628 17.4907 158.927 16.7867 159.524 16.232C160.143 15.656 160.932 15.368 161.892 15.368C162.831 15.368 163.599 15.656 164.196 16.232C164.815 16.7867 165.124 17.4907 165.124 18.344C165.124 19.176 164.815 19.88 164.196 20.456C163.599 21.0107 162.831 21.288 161.892 21.288ZM164.612 23.144V41H159.14V23.144H164.612Z" fill="#FDFBEE"/>
<defs>
<filter id="filter0_d_195_62" x="26.2256" y="15.324" width="31.4639" height="35.676" filterUnits="userSpaceOnUse" color-interpolation-filters="sRGB">
<feFlood flood-opacity="0" result="BackgroundImageFix"/>
<feColorMatrix in="SourceAlpha" type="matrix" values="0 0 0 0 0 0 0 0 0 0 0 0 0 0 0 0 0 0 127 0" result="hardAlpha"/>
<feOffset dx="4" dy="4"/>
<feGaussianBlur stdDeviation="1.5"/>
<feComposite in2="hardAlpha" operator="out"/>
<feColorMatrix type="matrix" values="0 0 0 0 1 0 0 0 0 1 0 0 0 0 1 0 0 0 0.25 0"/>
<feBlend mode="normal" in2="BackgroundImageFix" result="effect1_dropShadow_195_62"/>
<feBlend mode="normal" in="SourceGraphic" in2="effect1_dropShadow_195_62" result="shape"/>
</filter>
</defs>
</svg>
